<?xml version="1.0" encoding="utf-8"?>
<!-- Generator: Adobe Illustrator 17.0.2, SVG Export Plug-In . SVG Version: 6.00 Build 0)  -->
<!DOCTYPE svg PUBLIC "-//W3C//DTD SVG 1.1//EN" "http://www.w3.org/Graphics/SVG/1.1/DTD/svg11.dtd">
<svg version="1.1" id="Layer_1" xmlns="http://www.w3.org/2000/svg" xmlns:xlink="http://www.w3.org/1999/xlink" x="0px" y="0px"
	 width="960px" height="600px" viewBox="0 0 960 600" enable-background="new 0 0 960 600" xml:space="preserve">
<rect fill="#FFFFFF" width="960" height="600"/>
<g>
	<g>
		<polygon fill="#231F20" points="219.618,171.758 234.561,171.758 234.561,176.042 225.091,176.042 225.091,181.096 
			233.851,181.096 233.851,185.089 225.091,185.089 225.091,190.242 235.301,190.242 235.301,194.525 219.618,194.525 		"/>
		<g>
			<path fill="#231F20" d="M247.251,190.242c5.25,0,7.277-2.382,7.277-6.858c0-4.895-2.446-7.342-7.922-7.342h-2.608v14.2H247.251z
				 M238.555,171.758h8.149c7.889,0,13.298,3.382,13.298,11.301c0,7.892-4.895,11.466-13.105,11.466h-8.341V171.758z"/>
		</g>
		<path fill="#231F20" d="M274.013,183.9l-2.284-8.76l-2.672,8.76H274.013z M268.411,171.758h7.054l7.663,22.768h-5.669
			l-2.156-6.666h-7.696l-2.48,6.666h-5.476L268.411,171.758z"/>
		<polygon fill="#231F20" points="281.52,171.758 286.834,171.758 290.375,191.049 295.656,177.295 293.726,171.758 
			299.169,171.758 305.125,190.853 309.568,171.758 314.785,171.758 308.538,194.525 301.649,194.525 297.717,182.869 
			293.467,194.525 286.415,194.525 		"/>
		<path fill="#231F20" d="M327.541,183.9l-2.284-8.76l-2.672,8.76H327.541z M321.939,171.758h7.054l7.663,22.768h-5.669
			l-2.156-6.666h-7.696l-2.48,6.666h-5.476L321.939,171.758z"/>
		<g>
			<path fill="#231F20" d="M346.091,182.834c3.253,0,4.638-1.352,4.638-3.507c0-2.287-0.933-3.253-3.865-3.253h-2.639v6.761H346.091
				z M349.699,189.631l-2.578-2.996c-0.385,0.034-0.804,0.034-1.22,0.034h-1.676v7.858h-5.507v-22.768h8.855
				c5.122,0,8.791,2.351,8.791,7.439c0,2.541-1.223,4.764-3.669,6.149l2.318,2.51c1.257,1.354,2.672,2.256,5.152,2.899l-1.223,4.189
				C354.496,194.719,352.084,192.398,349.699,189.631"/>
			<path fill="#231F20" d="M370.83,190.242c5.25,0,7.277-2.382,7.277-6.858c0-4.895-2.449-7.342-7.922-7.342h-2.608v14.2H370.83z
				 M362.134,171.758h8.149c7.889,0,13.298,3.382,13.298,11.301c0,7.892-4.895,11.466-13.105,11.466h-8.341V171.758z"/>
		</g>
		<polygon fill="#231F20" points="220.095,202.011 225.959,202.011 225.959,203.693 222.242,203.693 222.242,205.678 
			225.682,205.678 225.682,207.245 222.242,207.245 222.242,209.269 226.249,209.269 226.249,210.95 220.095,210.95 		"/>
		<g>
			<path fill="#231F20" d="M227.461,207.308v-5.297h2.173v5.222c0,1.366,0.62,2.125,1.986,2.125c1.352,0,1.986-0.799,1.986-2.39
				v-4.957h2.111v4.993c0,3.122-2.1,4.111-4.097,4.111C229.559,211.114,227.461,210.201,227.461,207.308"/>
			<path fill="#231F20" d="M240.2,206.361c1.279,0,1.821-0.531,1.821-1.38c0-0.896-0.366-1.276-1.516-1.276h-1.036v2.656H240.2z
				 M241.616,209.027l-1.011-1.176c-0.151,0.014-0.316,0.014-0.48,0.014h-0.656v3.083h-2.161v-8.936h3.474
				c2.011,0,3.452,0.924,3.452,2.918c0,1-0.48,1.871-1.441,2.416l0.91,0.986c0.491,0.531,1.05,0.885,2.022,1.139l-0.48,1.642
				C243.501,211.024,242.552,210.114,241.616,209.027"/>
			<path fill="#231F20" d="M253.052,206.476c0-1.67-0.771-2.91-2.578-2.91c-1.896,0-2.628,1.24-2.628,2.882
				c0,1.631,0.72,2.957,2.538,2.957C252.359,209.406,253.052,208.141,253.052,206.476 M245.671,206.462
				c0-2.82,1.871-4.591,4.918-4.591c3.248,0,4.65,1.946,4.65,4.616c0,2.843-1.703,4.613-4.89,4.613
				C247.212,211.101,245.671,209.33,245.671,206.462"/>
			<path fill="#231F20" d="M258.614,206.764h0.732c1.34,0,1.821-0.695,1.821-1.53c0-0.896-0.366-1.541-1.516-1.541h-1.036V206.764z
				 M256.452,202.011h3.474c2.011,0,3.452,1.178,3.452,3.172c0,1.757-1.441,3.237-4.108,3.237h-0.656v2.53h-2.161V202.011z"/>
		</g>
		<polygon fill="#231F20" points="264.274,202.011 270.139,202.011 270.139,203.693 266.422,203.693 266.422,205.678 
			269.862,205.678 269.862,207.245 266.422,207.245 266.422,209.269 270.429,209.269 270.429,210.95 264.274,210.95 		"/>
		<path fill="#231F20" d="M276.494,206.776l-0.896-3.438l-1.05,3.438H276.494z M274.296,202.011h2.767l3.008,8.939h-2.223
			l-0.849-2.619h-3.019l-0.975,2.619h-2.147L274.296,202.011z"/>
		<polygon fill="#231F20" points="280.879,202.011 283.37,202.011 286.883,208.141 286.819,207.144 286.819,202.011 
			288.969,202.011 288.969,210.95 286.403,210.95 282.976,204.969 283.027,206.158 283.027,210.95 280.879,210.95 		"/>
		<g>
			<path fill="#231F20" d="M296.878,209.269c2.061,0,2.857-0.938,2.857-2.695c0-1.918-0.961-2.882-3.108-2.882h-1.025v5.577H296.878
				z M293.465,202.011h3.197c3.097,0,5.219,1.326,5.219,4.437c0,3.097-1.918,4.502-5.144,4.502h-3.273V202.011z"/>
		</g>
		<polygon fill="#231F20" points="303.094,202.011 308.959,202.011 308.959,203.693 305.242,203.693 305.242,205.678 
			308.682,205.678 308.682,207.245 305.242,207.245 305.242,209.269 309.249,209.269 309.249,210.95 303.094,210.95 		"/>
		<g>
			<path fill="#231F20" d="M309.894,210.455l0.606-1.541c0.796,0.279,1.377,0.405,2.362,0.405c1.075,0,1.569-0.33,1.569-0.874
				c0-1.452-4.247-1.061-4.247-4.094c0-1.72,1.631-2.466,3.209-2.466c1.416,0,2.1,0.304,2.795,0.606l-0.62,1.494
				c-0.656-0.19-1.201-0.369-2.111-0.369c-0.896,0-1.176,0.341-1.176,0.72c0,1.19,4.323,1.19,4.323,4.032
				c0,1.96-1.868,2.72-3.714,2.72C311.424,211.089,310.564,210.821,309.894,210.455"/>
		</g>
		<rect x="317.755" y="202.013" fill="#231F20" width="2.15" height="8.936"/>
		<g>
			<path fill="#231F20" d="M321.114,206.536c0-3.237,1.757-4.652,5.004-4.652c1.265,0,1.974,0.254,2.681,0.545l-0.567,1.555
				c-0.849-0.215-1.24-0.33-2.15-0.33c-1.592,0-2.781,0.785-2.781,2.759c0,1.969,1.315,2.868,2.946,2.868
				c0.201,0,0.391-0.014,0.567-0.014v-2.745h2.15v4.035c-1.011,0.391-1.857,0.519-2.946,0.519
				C323.05,211.077,321.114,209.636,321.114,206.536"/>
		</g>
		<polygon fill="#231F20" points="330.517,202.011 333.008,202.011 336.521,208.141 336.456,207.144 336.456,202.011 
			338.607,202.011 338.607,210.95 336.04,210.95 332.614,204.969 332.664,206.158 332.664,210.95 330.517,210.95 		"/>
		<path fill="#231F20" d="M347.387,206.776l-0.896-3.438l-1.05,3.438H347.387z M345.189,202.011h2.767l3.008,8.939h-2.223
			l-0.849-2.619h-3.019l-0.975,2.619h-2.147L345.189,202.011z"/>
		<polygon fill="#231F20" points="350.332,202.011 352.418,202.011 353.806,209.585 355.88,204.187 355.121,202.011 
			357.257,202.011 359.597,209.509 361.34,202.011 363.39,202.011 360.938,210.95 358.232,210.95 356.69,206.373 355.02,210.95 
			352.253,210.95 		"/>
		<path fill="#231F20" d="M368.391,206.776l-0.896-3.438l-1.05,3.438H368.391z M366.193,202.011h2.767l3.008,8.939h-2.223
			l-0.849-2.619h-3.019l-0.975,2.619h-2.147L366.193,202.011z"/>
		<g>
			<path fill="#231F20" d="M375.67,206.361c1.279,0,1.821-0.531,1.821-1.38c0-0.896-0.366-1.276-1.516-1.276h-1.036v2.656H375.67z
				 M377.086,209.027l-1.011-1.176c-0.151,0.014-0.316,0.014-0.48,0.014h-0.656v3.083h-2.161v-8.936h3.474
				c2.011,0,3.452,0.924,3.452,2.918c0,1-0.48,1.871-1.441,2.416l0.91,0.986c0.491,0.531,1.05,0.885,2.022,1.139l-0.48,1.642
				C378.971,211.024,378.021,210.114,377.086,209.027"/>
			<path fill="#231F20" d="M385.376,209.269c2.061,0,2.857-0.938,2.857-2.695c0-1.918-0.961-2.882-3.108-2.882H384.1v5.577H385.376z
				 M381.963,202.011h3.197c3.097,0,5.219,1.326,5.219,4.437c0,3.097-1.918,4.502-5.144,4.502h-3.273V202.011z"/>
			<path fill="#231F20" d="M390.96,210.455l0.606-1.541c0.796,0.279,1.377,0.405,2.365,0.405c1.072,0,1.567-0.33,1.567-0.874
				c0-1.452-4.247-1.061-4.247-4.094c0-1.72,1.631-2.466,3.209-2.466c1.416,0,2.1,0.304,2.795,0.606l-0.62,1.494
				c-0.656-0.19-1.201-0.369-2.111-0.369c-0.896,0-1.176,0.341-1.176,0.72c0,1.19,4.323,1.19,4.323,4.032
				c0,1.96-1.868,2.72-3.714,2.72C392.491,211.089,391.631,210.821,390.96,210.455"/>
		</g>
		<polygon fill="#231F20" points="176.062,166.432 176.062,183.592 160.086,177.825 156.238,189.808 172.51,194.986 
			162.303,208.301 172.069,215.55 181.831,202.531 191.893,216.142 202.248,208.597 191.893,194.69 208.017,189.364 
			204.468,178.415 188.341,183.592 188.341,166.432 		"/>
	</g>
</g>
<g>
	<defs>
		<polyline id="SVGID_1_" points="397.671,401.866 397.671,440.682 156.15,440.682 156.15,401.866 		"/>
	</defs>
	<clipPath id="SVGID_2_">
		<use xlink:href="#SVGID_1_"  overflow="visible"/>
	</clipPath>
	<g clip-path="url(#SVGID_2_)">
		<defs>
			<polyline id="SVGID_3_" points="397.59,402.1 397.59,440.682 156.17,440.682 156.17,402.1 			"/>
		</defs>
		<clipPath id="SVGID_4_">
			<use xlink:href="#SVGID_3_"  overflow="visible"/>
		</clipPath>
		<rect x="156.17" y="402.1" clip-path="url(#SVGID_4_)" fill="#231F20" width="241.419" height="38.582"/>
	</g>
	<path clip-path="url(#SVGID_2_)" fill="#FFFFFF" d="M170.677,422.927h3.825l-1.912-6.796L170.677,422.927 M176.721,431.39
		l-1.195-4.147h-5.838l-1.291,4.147h-5.178l6.449-20.777h6.485l6.508,20.777H176.721z"/>
	<path clip-path="url(#SVGID_2_)" fill="#FFFFFF" d="M189.837,426.83h2.675c0.56,0,1.078-0.028,1.75-0.388
		c0.609-0.354,1.091-0.839,1.437-1.442c0.674-1.117,1.004-2.465,1.004-4.12c0-1.283-0.347-3.235-1.321-4.512
		c-0.935-1.164-2.234-1.26-3.595-1.26h-1.949V426.83 M184.047,431.39v-20.777h7.624c3.081,0,5.432,0.423,7.64,2.541
		c2.049,1.936,3.178,4.735,3.178,7.882c0,2.866-1.075,5.686-2.875,7.535c-1.841,1.925-4.228,2.82-7.509,2.82H184.047z"/>
	<path clip-path="url(#SVGID_2_)" fill="#FFFFFF" d="M213.372,431.729c-5.857,0-9.495-3.991-9.495-10.418
		c0-6.867,3.515-10.968,9.402-10.968c5.063,0,8.237,2.974,8.717,8.16l-5.711,0.293c0.015-1.333-0.377-2.543-1.054-3.244
		c-0.547-0.574-1.201-0.876-1.891-0.876c-2.851,0-3.274,4.157-3.274,6.635c0,3.961,1.121,5.969,3.335,5.969
		c1.687,0,2.829-1.378,2.995-3.601l5.599,0.351C221.548,428.709,218.168,431.729,213.372,431.729"/>
	<polyline clip-path="url(#SVGID_2_)" fill="#FFFFFF" stroke="#FFFFFF" points="232.689,421.852 225.642,410.579 226.395,410.579 
		233.053,421.208 239.738,410.579 240.466,410.579 233.388,421.852 233.388,431.277 232.689,431.277 232.689,421.852 	"/>
	<path clip-path="url(#SVGID_2_)" fill="#FFFFFF" stroke="#FFFFFF" d="M240.914,420.928c0-6.349,3.497-10.768,8.335-10.768
		c4.783,0,8.363,4.419,8.363,10.768c0,6.35-3.58,10.768-8.363,10.768C244.411,431.696,240.914,427.278,240.914,420.928
		 M256.913,420.928c0-5.901-3.216-10.125-7.663-10.125c-4.502,0-7.635,4.224-7.635,10.125c0,5.901,3.133,10.125,7.635,10.125
		C253.696,431.053,256.913,426.829,256.913,420.928z"/>
	<path clip-path="url(#SVGID_2_)" fill="#FFFFFF" stroke="#FFFFFF" d="M261.447,424.648v-14.069h0.7v14.069
		c0,3.496,2.377,6.405,6.432,6.405c3.972,0,6.49-2.881,6.49-6.181v-14.293h0.698v14.293c0,3.692-2.825,6.824-7.188,6.824
		C264.077,431.696,261.447,428.536,261.447,424.648"/>
	<polyline clip-path="url(#SVGID_2_)" fill="#FFFFFF" stroke="#FFFFFF" points="280.637,410.579 281.393,410.579 294.566,429.99 
		294.566,410.579 295.238,410.579 295.238,431.277 294.566,431.277 281.309,411.698 281.309,431.277 280.637,431.277 
		280.637,410.579 	"/>
	<path clip-path="url(#SVGID_2_)" fill="#FFFFFF" stroke="#FFFFFF" d="M299.13,420.704c0-5.482,2.992-10.545,8.222-10.545
		c4.113,0,6.099,2.853,7.216,6.321l-0.67,0.225c-1.147-3.385-2.825-5.902-6.546-5.902c-4.838,0-7.523,4.811-7.523,9.901
		c0,6.852,3.665,10.349,7.637,10.349c3.886,0,6.6-3.329,6.433-8.279h-5.511v-0.643h6.21v9.146h-0.699v-4.559
		c-0.644,2.433-3.022,4.978-6.433,4.978C303.213,431.696,299.13,428.061,299.13,420.704"/>
	<path clip-path="url(#SVGID_2_)" fill="#FFFFFF" stroke="#FFFFFF" d="M317.957,420.704c0-5.482,2.992-10.545,8.222-10.545
		c4.113,0,6.099,2.853,7.216,6.321l-0.67,0.225c-1.147-3.385-2.825-5.902-6.546-5.902c-4.838,0-7.524,4.811-7.524,9.901
		c0,6.852,3.666,10.349,7.637,10.349c3.886,0,6.6-3.329,6.433-8.279h-5.511v-0.643h6.21v9.146h-0.699v-4.559
		c-0.644,2.433-3.022,4.978-6.433,4.978C322.04,431.696,317.957,428.061,317.957,420.704"/>
	<path clip-path="url(#SVGID_2_)" fill="#FFFFFF" stroke="#FFFFFF" d="M337.733,424.648v-14.069h0.7v14.069
		c0,3.496,2.377,6.405,6.432,6.405c3.972,0,6.489-2.881,6.489-6.181v-14.293h0.7v14.293c0,3.692-2.825,6.824-7.188,6.824
		C340.364,431.696,337.733,428.536,337.733,424.648"/>
	<polyline clip-path="url(#SVGID_2_)" fill="#FFFFFF" stroke="#FFFFFF" points="356.924,410.579 357.68,410.579 370.853,429.99 
		370.853,410.579 371.525,410.579 371.525,431.277 370.853,431.277 357.596,411.698 357.596,431.277 356.924,431.277 
		356.924,410.579 	"/>
	<path clip-path="url(#SVGID_2_)" fill="#FFFFFF" stroke="#FFFFFF" d="M375.248,426.131l0.67-0.224
		c0.952,3.077,2.685,5.147,6.826,5.147c3.636,0,5.985-1.819,5.985-4.644c0-2.992-1.483-4.194-6.043-5.677
		c-4.725-1.539-6.208-2.601-6.208-5.847c0-2.489,2.181-4.726,5.902-4.726c3.747,0,5.705,2.21,6.599,4.783l-0.67,0.224
		c-0.924-2.546-2.686-4.363-5.93-4.363c-3.33,0-5.202,1.93-5.202,4.083c0,2.826,1.453,3.805,5.76,5.203
		c4.336,1.398,6.489,2.601,6.489,6.32c0,3.273-2.797,5.287-6.683,5.287C377.989,431.696,376.198,429.263,375.248,426.131"/>
</g>
<g>
	<rect x="642.383" y="368" fill="#231F20" width="75.589" height="106.548"/>
	<g>
		<path fill="#FFFFFF" d="M655.175,391.9c-0.957,0-1.729,0.784-1.729,1.747c0,0.968,0.772,1.749,1.729,1.749
			s1.731-0.781,1.731-1.749C656.907,392.684,656.132,391.9,655.175,391.9 M655.215,387.836l-2.107-7.678h-3.148l3.731,10.519h2.97
			l3.709-10.519h-3.008L655.215,387.836z M700.065,390.677h2.795v-13.623h-2.795V390.677z M708.705,380.178v-3.123h-2.795v3.123
			h-1.443v1.993h1.443v8.506h2.795v-8.506h1.7v-1.993H708.705z M691.22,384.344c0.175-1.325,0.859-2.133,2.051-2.133
			c1.27,0,1.971,0.828,2.029,2.133H691.22z M693.251,379.882c-2.852,0-4.921,2.093-4.921,5.623c0,4.087,2.675,5.532,5.099,5.532
			c2.908,0,4.588-1.56,4.764-3.396h-2.912c-0.331,0.83-1.112,1.083-1.833,1.083c-1.523,0-2.284-1.063-2.304-2.524h7.07
			C698.327,381.796,696.396,379.882,693.251,379.882 M683.95,386.455c0,1.441-0.646,2.111-1.913,2.111
			c-1.272,0-1.856-0.688-1.856-2.111v-6.297h-2.888v6.75c0,2.646,1.891,4.007,4.644,4.007c2.795,0,4.863-1.243,4.863-4.382v-6.375
			h-2.85V386.455z M672.605,384.322l-1.778-0.435c-1.192-0.275-1.503-0.493-1.503-0.983c0-0.377,0.293-0.888,1.6-0.888
			c1.017,0,1.66,0.335,1.758,1.358h2.83c-0.233-2.426-1.796-3.512-4.626-3.512c-3.048,0-4.375,1.896-4.375,3.552
			c0,1.816,0.997,2.468,3.243,3.041l1.776,0.455c1.152,0.315,1.405,0.473,1.405,1.046s-0.646,0.908-1.678,0.908
			c-1.678,0-2.071-0.593-2.186-1.563h-2.872c0.04,2.686,2.089,3.736,4.846,3.736c3.259,0,4.744-1.505,4.744-3.556
			C675.788,385.665,674.441,384.777,672.605,384.322 M661.684,390.677h2.852v-10.519h-2.852V390.677z"/>
		<path fill="#FFFFFF" d="M680.17,466.269c-16.699,0-30.237-13.536-30.237-30.237c0-16.699,13.538-30.235,30.237-30.235
			c16.699,0,30.237,13.536,30.237,30.235C710.407,452.733,696.869,466.269,680.17,466.269"/>
	</g>
</g>
<g>
	<path fill="#231F20" d="M646.904,130.089v66.531h66.53v-66.531H646.904z M674.371,138.453h11.597c0,0,1.081,2.593,2.141,7.114
		h-15.877C673.289,141.046,674.371,138.453,674.371,138.453z M685.967,188.256h-11.597c0,0-1.081-2.594-2.14-7.115h15.877
		C687.049,185.662,685.967,188.256,685.967,188.256z M689.408,174.026H670.93c-0.291-2.173-0.518-4.554-0.631-7.115h19.743
		C689.929,169.472,689.702,171.853,689.408,174.026z M670.299,159.797c0.114-2.559,0.34-4.941,0.631-7.113h18.478
		c0.294,2.172,0.52,4.554,0.633,7.113H670.299z"/>
	<g>
		<g>
			<path fill="#231F20" d="M573.959,222.781l-0.58-1.738h-3.492l-0.593,1.738h-2.001l3.574-9.823h1.504l3.588,9.823H573.959z
				 M571.669,215.855l-1.242,3.574h2.442L571.669,215.855z"/>
			<path fill="#231F20" d="M585.594,222.781h-1.601l-1.807-5.96l-1.808,5.96h-1.6l-2.622-9.823h2.001l1.517,6.195l1.794-6.195h1.435
				l1.794,6.195l1.531-6.195h2.001L585.594,222.781z"/>
			<path fill="#231F20" d="M595.245,222.781l-0.58-1.738h-3.491l-0.593,1.738h-2.001l3.574-9.823h1.504l3.588,9.823H595.245z
				 M592.954,215.855l-1.242,3.574h2.442L592.954,215.855z"/>
			<path fill="#231F20" d="M604.094,222.781l-1.918-3.918h-1.38v3.918h-1.918v-9.823h3.85c2.001,0,3.187,1.365,3.187,3.007
				c0,1.381-0.842,2.235-1.794,2.58l2.195,4.236H604.094z M602.604,214.667h-1.807v2.596h1.807c0.842,0,1.394-0.537,1.394-1.298
				C603.998,215.206,603.446,214.667,602.604,214.667z"/>
			<path fill="#231F20" d="M614.462,221.842c-0.648,0.651-1.573,0.939-2.594,0.939h-3.546v-9.823h3.546
				c1.021,0,1.946,0.289,2.594,0.939c1.104,1.103,0.993,2.456,0.993,3.931C615.455,219.305,615.566,220.74,614.462,221.842z
				 M613.124,215.275c-0.331-0.4-0.772-0.609-1.435-0.609h-1.449v6.405h1.449c0.663,0,1.104-0.208,1.435-0.608
				c0.359-0.441,0.414-1.145,0.414-2.636C613.538,216.338,613.482,215.716,613.124,215.275z"/>
			<path fill="#231F20" d="M623.369,214.667v2.416h3.877v1.711h-3.877v3.986h-1.919v-9.823h6.472v1.709H623.369z"/>
			<path fill="#231F20" d="M635.683,221.789c-0.691,0.691-1.532,1.076-2.651,1.076c-1.116,0-1.973-0.386-2.663-1.076
				c-0.993-0.994-0.965-2.222-0.965-3.919c0-1.698-0.028-2.925,0.965-3.919c0.69-0.689,1.547-1.076,2.663-1.076
				c1.119,0,1.96,0.387,2.651,1.076c0.992,0.994,0.979,2.222,0.979,3.919C636.661,219.567,636.675,220.795,635.683,221.789z
				 M634.261,215.11c-0.277-0.317-0.704-0.523-1.229-0.523c-0.523,0-0.965,0.206-1.24,0.523c-0.374,0.413-0.469,0.869-0.469,2.76
				c0,1.89,0.096,2.346,0.469,2.76c0.275,0.317,0.717,0.524,1.24,0.524c0.525,0,0.952-0.207,1.229-0.524
				c0.372-0.414,0.483-0.87,0.483-2.76C634.744,215.979,634.634,215.523,634.261,215.11z"/>
			<path fill="#231F20" d="M644.255,222.781l-1.917-3.918h-1.381v3.918h-1.917v-9.823h3.851c2.001,0,3.188,1.365,3.188,3.007
				c0,1.381-0.843,2.235-1.795,2.58l2.194,4.236H644.255z M642.765,214.667h-1.808v2.596h1.808c0.843,0,1.394-0.537,1.394-1.298
				C644.159,215.206,643.608,214.667,642.765,214.667z"/>
			<path fill="#231F20" d="M658.241,221.842c-0.65,0.651-1.575,0.939-2.595,0.939H652.1v-9.823h3.546
				c1.021,0,1.946,0.289,2.595,0.939c1.103,1.103,0.993,2.456,0.993,3.931C659.234,219.305,659.344,220.74,658.241,221.842z
				 M656.902,215.275c-0.331-0.4-0.772-0.609-1.435-0.609h-1.448v6.405h1.448c0.663,0,1.104-0.208,1.435-0.608
				c0.358-0.441,0.415-1.145,0.415-2.636C657.317,216.338,657.26,215.716,656.902,215.275z"/>
			<path fill="#231F20" d="M661.612,222.781v-9.823h6.472v1.709h-4.554v2.307h3.878v1.71h-3.878v2.388h4.554v1.709H661.612z"/>
			<path fill="#231F20" d="M673.084,222.865c-1.491,0-2.622-0.319-3.587-1.297l1.24-1.242c0.621,0.622,1.464,0.828,2.375,0.828
				c1.131,0,1.737-0.427,1.737-1.215c0-0.345-0.096-0.634-0.303-0.828c-0.192-0.18-0.414-0.275-0.87-0.345l-1.187-0.165
				c-0.841-0.124-1.462-0.387-1.904-0.815c-0.469-0.469-0.704-1.104-0.704-1.932c0-1.753,1.297-2.981,3.423-2.981
				c1.352,0,2.332,0.332,3.173,1.146l-1.214,1.2c-0.621-0.592-1.367-0.676-2.016-0.676c-1.021,0-1.517,0.567-1.517,1.243
				c0,0.248,0.082,0.51,0.289,0.704c0.194,0.177,0.511,0.33,0.911,0.385l1.16,0.166c0.895,0.124,1.461,0.374,1.877,0.759
				c0.523,0.496,0.758,1.214,0.758,2.084C676.726,221.789,675.141,222.865,673.084,222.865z"/>
			<path fill="#231F20" d="M678.954,222.781v-9.823h1.917v9.823H678.954z"/>
			<path fill="#231F20" d="M689.636,221.747c-0.784,0.815-1.723,1.118-2.772,1.118c-1.075,0-1.96-0.386-2.65-1.076
				c-0.994-0.994-0.967-2.222-0.967-3.919c0-1.698-0.027-2.925,0.967-3.919c0.691-0.689,1.545-1.076,2.65-1.076
				c2.276,0,3.435,1.491,3.697,3.148h-1.93c-0.222-0.925-0.788-1.435-1.767-1.435c-0.525,0-0.952,0.206-1.229,0.523
				c-0.373,0.413-0.47,0.869-0.47,2.76c0,1.89,0.097,2.359,0.47,2.773c0.277,0.318,0.704,0.511,1.229,0.511
				c0.58,0,1.049-0.207,1.365-0.551c0.318-0.359,0.442-0.801,0.442-1.312v-0.372h-1.807v-1.601h3.71v1.435
				C690.574,220.174,690.326,221.029,689.636,221.747z"/>
			<path fill="#231F20" d="M698.747,222.781l-3.892-6.028v6.028h-1.916v-9.823h1.712l3.891,6.016v-6.016h1.917v9.823H698.747z"/>
			<path fill="#231F20" d="M706.786,222.781v-9.823h6.471v1.709h-4.552v2.307h3.878v1.71h-3.878v2.388h4.552v1.709H706.786z"/>
			<path fill="#231F20" d="M720.465,222.781l-1.903-3.422l-1.89,3.422h-2.195l3.049-5.035l-2.856-4.788h2.182l1.71,3.174
				l1.725-3.174h2.165l-2.856,4.788l3.063,5.035H720.465z"/>
			<path fill="#231F20" d="M727.438,222.865c-1.075,0-1.958-0.386-2.648-1.076c-0.994-0.994-0.965-2.222-0.965-3.919
				c0-1.698-0.03-2.925,0.965-3.919c0.691-0.689,1.573-1.076,2.648-1.076c1.836,0,3.271,1.049,3.616,3.105h-1.947
				c-0.192-0.786-0.688-1.392-1.656-1.392c-0.524,0-0.952,0.191-1.227,0.509c-0.372,0.413-0.482,0.883-0.482,2.773
				c0,1.89,0.11,2.359,0.482,2.773c0.275,0.318,0.704,0.511,1.227,0.511c0.968,0,1.464-0.608,1.656-1.394h1.947
				C730.709,221.815,729.261,222.865,727.438,222.865z"/>
			<path fill="#231F20" d="M733.127,222.781v-9.823h6.472v1.709h-4.551v2.307h3.877v1.71h-3.877v2.388h4.551v1.709H733.127z"/>
			<path fill="#231F20" d="M741.897,222.781v-9.823h1.917v8.114h4.458v1.709H741.897z"/>
			<path fill="#231F20" d="M750.248,222.781v-9.823h1.917v8.114h4.457v1.709H750.248z"/>
			<path fill="#231F20" d="M758.601,222.781v-9.823h6.472v1.709h-4.555v2.307h3.878v1.71h-3.878v2.388h4.555v1.709H758.601z"/>
			<path fill="#231F20" d="M773.176,222.781l-3.891-6.028v6.028h-1.917v-9.823h1.709l3.892,6.016v-6.016h1.92v9.823H773.176z"/>
			<path fill="#231F20" d="M780.883,222.865c-1.076,0-1.961-0.386-2.651-1.076c-0.992-0.994-0.965-2.222-0.965-3.919
				c0-1.698-0.027-2.925,0.965-3.919c0.691-0.689,1.575-1.076,2.651-1.076c1.834,0,3.271,1.049,3.613,3.105h-1.944
				c-0.195-0.786-0.691-1.392-1.656-1.392c-0.526,0-0.952,0.191-1.23,0.509c-0.372,0.413-0.482,0.883-0.482,2.773
				c0,1.89,0.11,2.359,0.482,2.773c0.278,0.318,0.704,0.511,1.23,0.511c0.965,0,1.461-0.608,1.656-1.394h1.944
				C784.154,221.815,782.703,222.865,780.883,222.865z"/>
			<path fill="#231F20" d="M786.572,222.781v-9.823h6.472v1.709h-4.554v2.307h3.877v1.71h-3.877v2.388h4.554v1.709H786.572z"/>
		</g>
		<g>
			<path fill="#231F20" d="M586.059,240.73l-5.216-7.879v7.879h-1.049v-9.826h0.994l5.215,7.852v-7.852h1.049v9.826H586.059z"/>
			<path fill="#231F20" d="M595.89,239.792c-0.663,0.662-1.532,1.021-2.512,1.021c-0.98,0-1.849-0.358-2.511-1.021
				c-0.924-0.925-0.924-1.89-0.924-3.974c0-2.084,0-3.05,0.924-3.975c0.663-0.661,1.532-1.021,2.511-1.021
				c0.98,0,1.849,0.36,2.512,1.021c0.925,0.925,0.925,1.89,0.925,3.975C596.814,237.901,596.814,238.867,595.89,239.792z
				 M595.075,232.464c-0.428-0.44-1.049-0.704-1.697-0.704c-0.648,0-1.27,0.263-1.697,0.704c-0.621,0.635-0.69,1.297-0.69,3.354
				c0,2.056,0.069,2.718,0.69,3.353c0.427,0.441,1.049,0.704,1.697,0.704c0.648,0,1.269-0.263,1.697-0.704
				c0.621-0.635,0.69-1.296,0.69-3.353C595.765,233.761,595.696,233.099,595.075,232.464z"/>
			<path fill="#231F20" d="M605.346,240.73l-2.235-4.36h-2.359v4.36h-1.049v-9.826h3.767c1.711,0,2.911,1.035,2.911,2.733
				c0,1.436-0.869,2.374-2.138,2.636l2.332,4.458H605.346z M603.373,231.843h-2.621v3.602h2.621c1.146,0,1.96-0.593,1.96-1.793
				C605.333,232.45,604.518,231.843,603.373,231.843z"/>
			<path fill="#231F20" d="M616.804,240.73h-0.98l-2.18-7.866l-2.18,7.866h-0.979l-2.511-9.826h1.117l1.919,7.921l2.166-7.921h0.938
				l2.167,7.921l1.918-7.921h1.117L616.804,240.73z"/>
			<path fill="#231F20" d="M621.378,240.73v-9.826h6.1v0.938h-5.05v3.465h4.305v0.939h-4.305v3.546h5.05v0.939H621.378z"/>
			<path fill="#231F20" d="M635.761,239.681c-0.69,0.745-1.615,1.132-2.622,1.132c-0.966,0-1.849-0.358-2.512-1.021
				c-0.923-0.925-0.923-1.89-0.923-3.974c0-2.084,0-3.05,0.923-3.975c0.663-0.661,1.532-1.021,2.512-1.021
				c1.877,0,3.145,1.215,3.437,2.939h-1.049c-0.276-1.241-1.16-2.001-2.388-2.001c-0.649,0-1.269,0.263-1.698,0.704
				c-0.62,0.635-0.69,1.297-0.69,3.354c0,2.056,0.07,2.731,0.69,3.366c0.429,0.443,1.049,0.691,1.698,0.691
				c0.719,0,1.408-0.29,1.863-0.843c0.4-0.483,0.552-1.019,0.552-1.779v-0.745h-2.415v-0.925h3.464v1.558
				C636.602,238.273,636.368,239.031,635.761,239.681z"/>
			<path fill="#231F20" d="M639.463,240.73v-9.826h1.049v9.826H639.463z"/>
			<path fill="#231F20" d="M649.497,240.73l-0.786-2.222h-4.292l-0.786,2.222h-1.117l3.614-9.826h0.883l3.603,9.826H649.497z
				 M646.586,232.409l-1.849,5.188h3.67L646.586,232.409z"/>
			<path fill="#231F20" d="M658.886,240.73l-5.216-7.879v7.879h-1.049v-9.826h0.993l5.215,7.852v-7.852h1.049v9.826H658.886z"/>
			<path fill="#231F20" d="M672.843,239.819c-0.593,0.593-1.463,0.912-2.483,0.912h-3.368v-9.826h3.368
				c1.021,0,1.891,0.317,2.483,0.912c1.022,1.021,0.966,2.525,0.966,3.891C673.809,237.074,673.865,238.796,672.843,239.819z
				 M672.112,232.561c-0.511-0.524-1.173-0.719-1.932-0.719h-2.14v7.949h2.14c0.759,0,1.421-0.194,1.932-0.718
				c0.676-0.704,0.648-2.168,0.648-3.368C672.76,234.507,672.788,233.263,672.112,232.561z"/>
			<path fill="#231F20" d="M676.698,240.73v-9.826h6.098v0.938h-5.049v3.465h4.305v0.939h-4.305v3.546h5.049v0.939H676.698z"/>
			<path fill="#231F20" d="M687.921,240.812c-1.475,0-2.443-0.374-3.365-1.297l0.717-0.719c0.815,0.815,1.572,1.077,2.675,1.077
				c1.437,0,2.319-0.676,2.319-1.822c0-0.509-0.151-0.951-0.47-1.228c-0.318-0.276-0.566-0.358-1.284-0.469l-1.146-0.18
				c-0.772-0.123-1.377-0.371-1.806-0.744c-0.497-0.442-0.745-1.049-0.745-1.836c0-1.669,1.2-2.773,3.144-2.773
				c1.257,0,2.084,0.317,2.926,1.077l-0.674,0.676c-0.61-0.551-1.257-0.843-2.292-0.843c-1.311,0-2.068,0.732-2.068,1.823
				c0,0.482,0.138,0.868,0.44,1.131c0.304,0.263,0.813,0.455,1.327,0.538l1.075,0.165c0.925,0.138,1.378,0.331,1.793,0.689
				c0.54,0.456,0.828,1.133,0.828,1.947C691.316,239.75,689.962,240.812,687.921,240.812z"/>
			<path fill="#231F20" d="M693.928,240.73v-9.826h1.049v9.826H693.928z"/>
			<path fill="#231F20" d="M703.919,239.681c-0.687,0.745-1.613,1.132-2.621,1.132c-0.965,0-1.846-0.358-2.51-1.021
				c-0.924-0.925-0.924-1.89-0.924-3.974c0-2.084,0-3.05,0.924-3.975c0.664-0.661,1.532-1.021,2.51-1.021
				c1.877,0,3.147,1.215,3.436,2.939h-1.049c-0.275-1.241-1.157-2.001-2.387-2.001c-0.647,0-1.269,0.263-1.695,0.704
				c-0.62,0.635-0.691,1.297-0.691,3.354c0,2.056,0.071,2.731,0.691,3.366c0.426,0.443,1.048,0.691,1.695,0.691
				c0.718,0,1.408-0.29,1.863-0.843c0.4-0.483,0.553-1.019,0.553-1.779v-0.745h-2.417v-0.925h3.466v1.558
				C704.764,238.273,704.529,239.031,703.919,239.681z"/>
			<path fill="#231F20" d="M713.888,240.73l-5.214-7.879v7.879h-1.049v-9.826h0.993l5.215,7.852v-7.852h1.049v9.826H713.888z"/>
			<path fill="#231F20" d="M725.06,240.812c-0.965,0-1.85-0.358-2.513-1.021c-0.922-0.925-0.922-1.89-0.922-3.974
				c0-2.084,0-3.05,0.922-3.975c0.663-0.661,1.548-1.021,2.513-1.021c1.766,0,3.076,1.077,3.408,2.925h-1.076
				c-0.265-1.201-1.106-1.987-2.332-1.987c-0.65,0-1.27,0.25-1.699,0.691c-0.621,0.635-0.69,1.311-0.69,3.367
				c0,2.056,0.069,2.731,0.69,3.366c0.429,0.443,1.048,0.691,1.699,0.691c1.227,0,2.098-0.786,2.359-1.987h1.049
				C728.15,239.735,726.812,240.812,725.06,240.812z"/>
			<path fill="#231F20" d="M736.779,239.792c-0.664,0.662-1.532,1.021-2.51,1.021c-0.981,0-1.85-0.358-2.513-1.021
				c-0.923-0.925-0.923-1.89-0.923-3.974c0-2.084,0-3.05,0.923-3.975c0.663-0.661,1.532-1.021,2.513-1.021
				c0.979,0,1.847,0.36,2.51,1.021c0.924,0.925,0.924,1.89,0.924,3.975C737.703,237.901,737.703,238.867,736.779,239.792z
				 M735.964,232.464c-0.428-0.44-1.049-0.704-1.696-0.704c-0.65,0-1.27,0.263-1.699,0.704c-0.621,0.635-0.69,1.297-0.69,3.354
				c0,2.056,0.069,2.718,0.69,3.353c0.429,0.441,1.049,0.704,1.699,0.704c0.647,0,1.268-0.263,1.696-0.704
				c0.621-0.635,0.691-1.296,0.691-3.353C736.655,233.761,736.585,233.099,735.964,232.464z"/>
			<path fill="#231F20" d="M743.876,240.812c-1.987,0-3.422-1.366-3.422-3.326v-6.582h1.049v6.5c0,1.49,0.939,2.47,2.373,2.47
				c1.434,0,2.386-0.98,2.386-2.47v-6.5h1.05v6.582C747.312,239.447,745.863,240.812,743.876,240.812z"/>
			<path fill="#231F20" d="M756.7,240.73l-5.215-7.879v7.879h-1.049v-9.826h0.992l5.215,7.852v-7.852h1.049v9.826H756.7z"/>
			<path fill="#231F20" d="M764.019,240.812c-0.966,0-1.847-0.358-2.51-1.021c-0.924-0.925-0.924-1.89-0.924-3.974
				c0-2.084,0-3.05,0.924-3.975c0.663-0.661,1.545-1.021,2.51-1.021c1.766,0,3.077,1.077,3.408,2.925h-1.076
				c-0.261-1.201-1.103-1.987-2.332-1.987c-0.647,0-1.27,0.25-1.696,0.691c-0.62,0.635-0.689,1.311-0.689,3.367
				c0,2.056,0.069,2.731,0.689,3.366c0.427,0.443,1.049,0.691,1.696,0.691c1.23,0,2.098-0.786,2.359-1.987h1.049
				C767.109,239.735,765.771,240.812,764.019,240.812z"/>
			<path fill="#231F20" d="M770.164,240.73v-9.826h1.049v9.826H770.164z"/>
			<path fill="#231F20" d="M774.473,240.73v-9.826h1.049v8.887h5.021v0.939H774.473z"/>
		</g>
	</g>
</g>
</svg>
